<mxfile host="app.diagrams.net" modified="2023-04-11T09:20:24.469Z" agent="Mozilla/5.0 (Macintosh; Intel Mac OS X 10_15_7) AppleWebKit/537.36 (KHTML, like Gecko) Chrome/112.0.0.0 Safari/537.36" etag="TXo0JY6ijdcg5P-xYoTH" version="21.1.5" type="device">
  <diagram name="第 1 页" id="gWLdxzbueRxqh6RLFOWJ">
    <mxGraphModel dx="1306" dy="836" grid="1" gridSize="10" guides="1" tooltips="1" connect="1" arrows="1" fold="1" page="1" pageScale="1" pageWidth="827" pageHeight="1169" math="0" shadow="0">
      <root>
        <mxCell id="0" />
        <mxCell id="1" parent="0" />
        <mxCell id="zn6yM7T_WwumPO9jG0a1-1" value="" style="rounded=0;whiteSpace=wrap;html=1;dashed=1;sketch=1;curveFitting=1;jiggle=2;" vertex="1" parent="1">
          <mxGeometry x="180" y="240" width="1560" height="440" as="geometry" />
        </mxCell>
        <mxCell id="b46OmU9JXOE_83SYl6j_-10" style="edgeStyle=orthogonalEdgeStyle;rounded=0;orthogonalLoop=1;jettySize=auto;html=1;exitX=1;exitY=0.5;exitDx=0;exitDy=0;exitPerimeter=0;sketch=1;curveFitting=1;jiggle=2;" parent="1" source="b46OmU9JXOE_83SYl6j_-1" target="b46OmU9JXOE_83SYl6j_-5" edge="1">
          <mxGeometry relative="1" as="geometry" />
        </mxCell>
        <mxCell id="b46OmU9JXOE_83SYl6j_-1" value="&lt;font face=&quot;Comic Sans MS&quot;&gt;client_1&lt;/font&gt;" style="strokeWidth=1;html=1;shape=mxgraph.flowchart.start_1;whiteSpace=wrap;shadow=0;sketch=1;curveFitting=1;jiggle=2;" parent="1" vertex="1">
          <mxGeometry x="30" y="290" width="100" height="60" as="geometry" />
        </mxCell>
        <mxCell id="b46OmU9JXOE_83SYl6j_-11" style="edgeStyle=orthogonalEdgeStyle;rounded=0;orthogonalLoop=1;jettySize=auto;html=1;exitX=1;exitY=0.5;exitDx=0;exitDy=0;exitPerimeter=0;sketch=1;curveFitting=1;jiggle=2;" parent="1" source="b46OmU9JXOE_83SYl6j_-2" target="b46OmU9JXOE_83SYl6j_-7" edge="1">
          <mxGeometry relative="1" as="geometry" />
        </mxCell>
        <mxCell id="b46OmU9JXOE_83SYl6j_-2" value="&lt;font face=&quot;Comic Sans MS&quot;&gt;client_2&lt;/font&gt;" style="strokeWidth=1;html=1;shape=mxgraph.flowchart.start_1;whiteSpace=wrap;shadow=0;sketch=1;curveFitting=1;jiggle=2;" parent="1" vertex="1">
          <mxGeometry x="30" y="440" width="100" height="60" as="geometry" />
        </mxCell>
        <mxCell id="b46OmU9JXOE_83SYl6j_-12" style="edgeStyle=orthogonalEdgeStyle;rounded=0;orthogonalLoop=1;jettySize=auto;html=1;exitX=1;exitY=0.5;exitDx=0;exitDy=0;exitPerimeter=0;entryX=0;entryY=0.5;entryDx=0;entryDy=0;sketch=1;curveFitting=1;jiggle=2;" parent="1" source="b46OmU9JXOE_83SYl6j_-3" target="b46OmU9JXOE_83SYl6j_-8" edge="1">
          <mxGeometry relative="1" as="geometry" />
        </mxCell>
        <mxCell id="b46OmU9JXOE_83SYl6j_-3" value="&lt;font face=&quot;Comic Sans MS&quot;&gt;client_3&lt;/font&gt;" style="strokeWidth=1;html=1;shape=mxgraph.flowchart.start_1;whiteSpace=wrap;shadow=0;sketch=1;curveFitting=1;jiggle=2;" parent="1" vertex="1">
          <mxGeometry x="30" y="585" width="100" height="60" as="geometry" />
        </mxCell>
        <mxCell id="b46OmU9JXOE_83SYl6j_-5" value="&lt;font face=&quot;Comic Sans MS&quot;&gt;server_socket&lt;/font&gt;" style="rounded=0;whiteSpace=wrap;html=1;shadow=0;sketch=1;curveFitting=1;jiggle=2;" parent="1" vertex="1">
          <mxGeometry x="220" y="290" width="120" height="60" as="geometry" />
        </mxCell>
        <mxCell id="b46OmU9JXOE_83SYl6j_-7" value="&lt;font face=&quot;Comic Sans MS&quot;&gt;server_socket&lt;/font&gt;" style="rounded=0;whiteSpace=wrap;html=1;shadow=0;sketch=1;curveFitting=1;jiggle=2;" parent="1" vertex="1">
          <mxGeometry x="220" y="440" width="120" height="60" as="geometry" />
        </mxCell>
        <mxCell id="b46OmU9JXOE_83SYl6j_-8" value="&lt;font face=&quot;Comic Sans MS&quot;&gt;server_socket&lt;/font&gt;" style="rounded=0;whiteSpace=wrap;html=1;shadow=0;sketch=1;curveFitting=1;jiggle=2;" parent="1" vertex="1">
          <mxGeometry x="220" y="585" width="120" height="60" as="geometry" />
        </mxCell>
        <mxCell id="b46OmU9JXOE_83SYl6j_-13" style="edgeStyle=orthogonalEdgeStyle;rounded=0;orthogonalLoop=1;jettySize=auto;html=1;exitX=0;exitY=0.5;exitDx=0;exitDy=0;entryX=1;entryY=0.5;entryDx=0;entryDy=0;sketch=1;curveFitting=1;jiggle=2;" parent="1" source="b46OmU9JXOE_83SYl6j_-9" target="b46OmU9JXOE_83SYl6j_-5" edge="1">
          <mxGeometry relative="1" as="geometry" />
        </mxCell>
        <mxCell id="b46OmU9JXOE_83SYl6j_-14" style="edgeStyle=orthogonalEdgeStyle;rounded=0;orthogonalLoop=1;jettySize=auto;html=1;exitX=0;exitY=0.5;exitDx=0;exitDy=0;sketch=1;curveFitting=1;jiggle=2;" parent="1" source="b46OmU9JXOE_83SYl6j_-9" target="b46OmU9JXOE_83SYl6j_-7" edge="1">
          <mxGeometry relative="1" as="geometry" />
        </mxCell>
        <mxCell id="b46OmU9JXOE_83SYl6j_-15" style="edgeStyle=orthogonalEdgeStyle;rounded=0;orthogonalLoop=1;jettySize=auto;html=1;exitX=0;exitY=0.5;exitDx=0;exitDy=0;entryX=1;entryY=0.5;entryDx=0;entryDy=0;sketch=1;curveFitting=1;jiggle=2;" parent="1" source="b46OmU9JXOE_83SYl6j_-9" target="b46OmU9JXOE_83SYl6j_-8" edge="1">
          <mxGeometry relative="1" as="geometry" />
        </mxCell>
        <mxCell id="b46OmU9JXOE_83SYl6j_-17" style="edgeStyle=orthogonalEdgeStyle;rounded=0;orthogonalLoop=1;jettySize=auto;html=1;exitX=1;exitY=0.5;exitDx=0;exitDy=0;sketch=1;curveFitting=1;jiggle=2;" parent="1" source="b46OmU9JXOE_83SYl6j_-9" target="b46OmU9JXOE_83SYl6j_-16" edge="1">
          <mxGeometry relative="1" as="geometry" />
        </mxCell>
        <mxCell id="b46OmU9JXOE_83SYl6j_-9" value="&lt;font face=&quot;Comic Sans MS&quot;&gt;IO多路复用程序&lt;/font&gt;" style="rounded=0;whiteSpace=wrap;html=1;shadow=0;sketch=1;curveFitting=1;jiggle=2;" parent="1" vertex="1">
          <mxGeometry x="470" y="440" width="120" height="60" as="geometry" />
        </mxCell>
        <mxCell id="b46OmU9JXOE_83SYl6j_-22" style="edgeStyle=orthogonalEdgeStyle;rounded=0;orthogonalLoop=1;jettySize=auto;html=1;exitX=1;exitY=0.5;exitDx=0;exitDy=0;sketch=1;curveFitting=1;jiggle=2;" parent="1" source="b46OmU9JXOE_83SYl6j_-16" target="b46OmU9JXOE_83SYl6j_-21" edge="1">
          <mxGeometry relative="1" as="geometry" />
        </mxCell>
        <mxCell id="b46OmU9JXOE_83SYl6j_-16" value="" style="rounded=0;whiteSpace=wrap;html=1;shadow=0;sketch=1;curveFitting=1;jiggle=2;" parent="1" vertex="1">
          <mxGeometry x="730" y="437.5" width="380" height="65" as="geometry" />
        </mxCell>
        <mxCell id="b46OmU9JXOE_83SYl6j_-18" value="&lt;font face=&quot;Comic Sans MS&quot;&gt;task_1&lt;/font&gt;" style="ellipse;whiteSpace=wrap;html=1;sketch=1;curveFitting=1;jiggle=2;" parent="1" vertex="1">
          <mxGeometry x="750" y="445" width="86" height="50" as="geometry" />
        </mxCell>
        <mxCell id="b46OmU9JXOE_83SYl6j_-19" value="&lt;font face=&quot;Comic Sans MS&quot;&gt;task_2&lt;/font&gt;" style="ellipse;whiteSpace=wrap;html=1;sketch=1;curveFitting=1;jiggle=2;" parent="1" vertex="1">
          <mxGeometry x="870" y="445" width="86" height="50" as="geometry" />
        </mxCell>
        <mxCell id="b46OmU9JXOE_83SYl6j_-20" value="&lt;font face=&quot;Comic Sans MS&quot;&gt;task_n&lt;/font&gt;" style="ellipse;whiteSpace=wrap;html=1;sketch=1;curveFitting=1;jiggle=2;" parent="1" vertex="1">
          <mxGeometry x="1010" y="445" width="86" height="50" as="geometry" />
        </mxCell>
        <mxCell id="b46OmU9JXOE_83SYl6j_-26" style="edgeStyle=orthogonalEdgeStyle;rounded=0;orthogonalLoop=1;jettySize=auto;html=1;exitX=1;exitY=0.5;exitDx=0;exitDy=0;entryX=0;entryY=0.5;entryDx=0;entryDy=0;sketch=1;curveFitting=1;jiggle=2;" parent="1" source="b46OmU9JXOE_83SYl6j_-21" target="b46OmU9JXOE_83SYl6j_-23" edge="1">
          <mxGeometry relative="1" as="geometry" />
        </mxCell>
        <mxCell id="b46OmU9JXOE_83SYl6j_-27" style="edgeStyle=orthogonalEdgeStyle;rounded=0;orthogonalLoop=1;jettySize=auto;html=1;exitX=1;exitY=0.5;exitDx=0;exitDy=0;shadow=1;" parent="1" source="b46OmU9JXOE_83SYl6j_-21" target="b46OmU9JXOE_83SYl6j_-24" edge="1">
          <mxGeometry relative="1" as="geometry" />
        </mxCell>
        <mxCell id="b46OmU9JXOE_83SYl6j_-28" style="edgeStyle=orthogonalEdgeStyle;rounded=0;orthogonalLoop=1;jettySize=auto;html=1;exitX=1;exitY=0.5;exitDx=0;exitDy=0;entryX=0;entryY=0.5;entryDx=0;entryDy=0;shadow=0;sketch=1;curveFitting=1;jiggle=2;" parent="1" source="b46OmU9JXOE_83SYl6j_-21" target="b46OmU9JXOE_83SYl6j_-25" edge="1">
          <mxGeometry relative="1" as="geometry" />
        </mxCell>
        <mxCell id="b46OmU9JXOE_83SYl6j_-21" value="&lt;font face=&quot;Comic Sans MS&quot;&gt;文件事件分派器&lt;/font&gt;" style="rounded=0;whiteSpace=wrap;html=1;shadow=0;sketch=1;curveFitting=1;jiggle=2;" parent="1" vertex="1">
          <mxGeometry x="1210" y="440" width="120" height="60" as="geometry" />
        </mxCell>
        <mxCell id="b46OmU9JXOE_83SYl6j_-23" value="&lt;font face=&quot;Comic Sans MS&quot;&gt;连接应答处理器&lt;/font&gt;" style="rounded=0;whiteSpace=wrap;html=1;shadow=0;sketch=1;curveFitting=1;jiggle=2;" parent="1" vertex="1">
          <mxGeometry x="1450" y="320" width="120" height="60" as="geometry" />
        </mxCell>
        <mxCell id="b46OmU9JXOE_83SYl6j_-24" value="&lt;font face=&quot;Comic Sans MS&quot;&gt;命令请求处理器&lt;/font&gt;" style="rounded=0;whiteSpace=wrap;html=1;shadow=0;sketch=1;curveFitting=1;jiggle=2;" parent="1" vertex="1">
          <mxGeometry x="1450" y="440" width="120" height="60" as="geometry" />
        </mxCell>
        <mxCell id="b46OmU9JXOE_83SYl6j_-25" value="&lt;font face=&quot;Comic Sans MS&quot;&gt;命令应答处理器&lt;/font&gt;" style="rounded=0;whiteSpace=wrap;html=1;shadow=0;sketch=1;curveFitting=1;jiggle=2;" parent="1" vertex="1">
          <mxGeometry x="1450" y="570" width="120" height="60" as="geometry" />
        </mxCell>
        <mxCell id="b46OmU9JXOE_83SYl6j_-29" value="监听socket，将客户端的命令压入任务队列" style="text;html=1;strokeColor=none;fillColor=none;align=center;verticalAlign=middle;whiteSpace=wrap;rounded=0;" parent="1" vertex="1">
          <mxGeometry x="440" y="380" width="220" height="30" as="geometry" />
        </mxCell>
        <mxCell id="b46OmU9JXOE_83SYl6j_-30" value="任务队列" style="text;html=1;strokeColor=none;fillColor=none;align=center;verticalAlign=middle;whiteSpace=wrap;rounded=0;" parent="1" vertex="1">
          <mxGeometry x="803" y="390" width="220" height="30" as="geometry" />
        </mxCell>
        <mxCell id="b46OmU9JXOE_83SYl6j_-31" value="建立连接" style="text;html=1;strokeColor=none;fillColor=none;align=center;verticalAlign=middle;whiteSpace=wrap;rounded=0;" parent="1" vertex="1">
          <mxGeometry x="1590" y="335" width="90" height="25" as="geometry" />
        </mxCell>
        <mxCell id="b46OmU9JXOE_83SYl6j_-32" value="执行客户端命令" style="text;html=1;strokeColor=none;fillColor=none;align=center;verticalAlign=middle;whiteSpace=wrap;rounded=0;" parent="1" vertex="1">
          <mxGeometry x="1600" y="457.5" width="90" height="25" as="geometry" />
        </mxCell>
        <mxCell id="b46OmU9JXOE_83SYl6j_-33" value="返回处理结果" style="text;html=1;strokeColor=none;fillColor=none;align=center;verticalAlign=middle;whiteSpace=wrap;rounded=0;" parent="1" vertex="1">
          <mxGeometry x="1590" y="587.5" width="90" height="25" as="geometry" />
        </mxCell>
        <mxCell id="zn6yM7T_WwumPO9jG0a1-2" value="文件事件处理器" style="text;html=1;strokeColor=none;fillColor=none;align=center;verticalAlign=middle;whiteSpace=wrap;rounded=0;" vertex="1" parent="1">
          <mxGeometry x="816" y="260" width="140" height="30" as="geometry" />
        </mxCell>
      </root>
    </mxGraphModel>
  </diagram>
</mxfile>
